<svg xmlns="http://www.w3.org/2000/svg" viewBox="0 0 474.73 347.15"><defs><style>.cls-1{fill:#00aeef;}.cls-1,.cls-2{fill-rule:evenodd;}.cls-2{fill:#002447;}</style></defs><title>Asset 1</title><g id="Layer_2" data-name="Layer 2"><g id="Layer_1-2" data-name="Layer 1"><polygon class="cls-1" points="128.73 203.99 218.39 203.99 210.79 211.56 136.31 211.56 128.73 203.99 128.73 203.99"/><polygon class="cls-1" points="115.4 190.67 231.68 190.67 224.09 198.27 123 198.27 115.4 190.67 115.4 190.67"/><polygon class="cls-1" points="102.11 177.38 245 177.38 237.38 184.97 109.72 184.97 102.11 177.38 102.11 177.38"/><polygon class="cls-1" points="168.62 243.89 178.48 243.89 173.56 248.82 173.56 248.82 168.62 243.89 168.62 243.89"/><polygon class="cls-1" points="142.01 217.28 205.08 217.28 197.47 224.88 149.61 224.88 142.01 217.28 142.01 217.28"/><polygon class="cls-1" points="155.32 230.57 191.79 230.57 184.18 238.17 162.93 238.17 155.32 230.57 155.32 230.57"/><polygon class="cls-2" points="169.76 0 169.76 91.36 91.37 169.78 0 169.78 169.76 0 169.76 0"/><polygon class="cls-2" points="264.17 94.54 248.45 58.58 253.78 58.58 264.9 84.05 276.28 58.58 281.54 58.58 265.5 94.54 264.17 94.54 264.17 94.54"/><path class="cls-2" d="M289,79.18h11.14L294.5,66.31,289,79.18ZM277.23,94.28l15.47-35.7h3.73l15.67,35.7h-5.27l-4.61-10.51H287l-4.53,10.51Z"/><polygon class="cls-2" points="314.92 94.28 314.92 58.58 319.98 58.58 319.98 89.69 336.96 89.69 336.96 94.28 314.92 94.28 314.92 94.28"/><polygon class="cls-2" points="341.32 94.28 341.32 58.58 346.37 58.58 346.37 89.69 363.36 89.69 363.36 94.28 341.32 94.28 341.32 94.28"/><polygon class="cls-2" points="367.56 94.28 367.56 58.58 389.02 58.58 389.02 63.12 372.62 63.12 372.62 73.95 388.56 73.95 388.56 78.56 372.62 78.56 372.62 89.69 389.57 89.69 389.57 94.28 367.56 94.28 367.56 94.28"/><polygon class="cls-2" points="404.56 94.28 404.56 76.43 390.76 58.58 396.82 58.58 407.24 72.14 417.91 58.58 424.05 58.58 409.73 76.67 409.73 94.28 404.56 94.28 404.56 94.28"/><polygon class="cls-2" points="319.81 151.89 306.57 115.93 311.87 115.93 320.59 140.31 330.21 115.93 333.45 115.93 342.98 140.36 351.87 115.93 357.04 115.93 343.57 151.89 342.44 151.89 331.76 124.39 321.01 151.89 319.81 151.89 319.81 151.89"/><path class="cls-2" d="M364.9,136.54H376l-5.65-12.88-5.48,12.88Zm-11.77,15.11,15.48-35.72h3.72L388,151.65h-5.28l-4.6-10.52H362.9l-4.54,10.52Z"/><polygon class="cls-2" points="396.51 151.65 396.51 120.58 383.39 120.58 383.39 115.93 414.7 115.93 414.7 120.58 401.6 120.58 401.6 151.65 396.51 151.65 396.51 151.65"/><polygon class="cls-2" points="418.91 151.65 418.91 115.93 440.37 115.93 440.37 120.47 423.96 120.47 423.96 131.3 439.91 131.3 439.91 135.92 423.96 135.92 423.96 147.05 440.89 147.05 440.89 151.65 418.91 151.65 418.91 151.65"/><path class="cls-2" d="M447.26,151.65V115.93h10.46c3.62,0,6.4.86,8.36,2.55A9.07,9.07,0,0,1,469,125.7a9.24,9.24,0,0,1-1.61,5.68,9.69,9.69,0,0,1-5.08,3.21,7,7,0,0,1,1.68,1.29,17.61,17.61,0,0,1,2.05,2.69l8.68,13.08h-6.19l-6.12-9.37c-1.84-2.82-3.32-4.62-4.47-5.42a6.9,6.9,0,0,0-4-1.16h-1.55v16Zm5.13-20.25h4.23A8.63,8.63,0,0,0,462,130a6,6,0,0,0,.1-8.43c-1.12-.89-2.95-1.33-5.44-1.33h-4.23V131.4Z"/><path class="cls-2" d="M227.57,18.76V33.87a41.92,41.92,0,0,1-6.67,2.29,26.34,26.34,0,0,1-6,.74,21.74,21.74,0,0,1-6-.79,18.33,18.33,0,0,1-13.6-17.83,17.87,17.87,0,0,1,5.59-12.88,18.19,18.19,0,0,1,6.37-4.07A22.76,22.76,0,0,1,215.14,0a25.32,25.32,0,0,1,6,.72,33.93,33.93,0,0,1,6.14,2.14V8.4a31.9,31.9,0,0,0-6.38-2.71,20.27,20.27,0,0,0-5.81-.89,14.4,14.4,0,0,0-10.32,3.89,12.92,12.92,0,0,0-4.08,9.75,12.87,12.87,0,0,0,4,9.69A14,14,0,0,0,214.83,32a18,18,0,0,0,3.68-.39,22.79,22.79,0,0,0,3.8-1.21V23.51H215.6V18.76Z"/><path class="cls-2" d="M237.68,18.44a13.57,13.57,0,0,0,1,5.22,13.89,13.89,0,0,0,2.94,4.39A12.92,12.92,0,0,0,246,31a14,14,0,0,0,10.51,0,13.27,13.27,0,0,0,4.42-3,14.05,14.05,0,0,0,2.95-4.39,13.44,13.44,0,0,0,1-5.22,13.28,13.28,0,0,0-1-5.16,14,14,0,0,0-3-4.45,13.12,13.12,0,0,0-4.39-3,13.4,13.4,0,0,0-5.23-1,13.12,13.12,0,0,0-5.14,1,14.28,14.28,0,0,0-4.48,3,13.11,13.11,0,0,0-2.94,4.36,13.82,13.82,0,0,0-1,5.25Zm-5.44-.17a17.27,17.27,0,0,1,1.46-6.93,18.17,18.17,0,0,1,4.14-5.95,19.2,19.2,0,0,1,6.17-4,19.88,19.88,0,0,1,14.61,0,18.15,18.15,0,0,1,6.12,4,18,18,0,0,1,4.2,6,18.29,18.29,0,0,1,1.4,7.2,17.4,17.4,0,0,1-1.42,7,17.88,17.88,0,0,1-4.11,5.92,19.23,19.23,0,0,1-6.21,4,20.13,20.13,0,0,1-14.62,0,19.06,19.06,0,0,1-6.13-4,18.07,18.07,0,0,1-5.6-13.25Z"/><path class="cls-2" d="M275.82.56h5.07v20.5a23.11,23.11,0,0,0,.37,4.84,6.13,6.13,0,0,0,1.27,2.48,9.71,9.71,0,0,0,3.74,2.79,12.37,12.37,0,0,0,4.92.92,11.21,11.21,0,0,0,7.49-2.4,7.88,7.88,0,0,0,2.82-6.33V.56h5.08v23a12.24,12.24,0,0,1-4.26,9.69c-2.82,2.48-6.55,3.7-11.13,3.7a17.9,17.9,0,0,1-7.32-1.44,14.52,14.52,0,0,1-5.53-4.21,10.16,10.16,0,0,1-1.95-3.7,25.26,25.26,0,0,1-.57-6.28V.56Z"/><polygon class="cls-2" points="314.21 36.27 314.21 0.56 319.25 0.56 319.25 31.68 336.25 31.68 336.25 36.27 314.21 36.27 314.21 36.27"/><path class="cls-2" d="M345.5,20.55V31.63h6.79c2.49,0,4.29-.44,5.44-1.32a4.82,4.82,0,0,0,1.73-4.12,4.83,4.83,0,0,0-1.93-4.27c-1.29-.92-3.3-1.37-6.07-1.37Zm-5.07,15.72V.56h10.44q5.34,0,8.24,2.43A8.47,8.47,0,0,1,362,9.87a7.83,7.83,0,0,1-1.29,4.61,8.14,8.14,0,0,1-4,2.82,11.19,11.19,0,0,1,6,3.35,8.69,8.69,0,0,1,2.13,5.89,8.64,8.64,0,0,1-3.27,7.08c-2.16,1.76-5.1,2.65-8.81,2.65Zm5.07-20.4h3.44c2.61,0,4.54-.47,5.8-1.39a5,5,0,0,0,1.89-4.3,4.59,4.59,0,0,0-1.5-3.83c-1-.8-2.57-1.2-4.76-1.2H345.5V15.88Z"/><path class="cls-2" d="M370.48.56h5.08v20.5a22.66,22.66,0,0,0,.36,4.84,6.32,6.32,0,0,0,1.25,2.48,9.83,9.83,0,0,0,3.75,2.79,12.34,12.34,0,0,0,4.92.92,11.15,11.15,0,0,0,7.48-2.4,7.9,7.9,0,0,0,2.84-6.33V.56h5.08v23A12.24,12.24,0,0,1,397,33.2c-2.84,2.48-6.54,3.7-11.13,3.7a18,18,0,0,1-7.32-1.44A14.41,14.41,0,0,1,373,31.25a10.08,10.08,0,0,1-2-3.7,25.67,25.67,0,0,1-.57-6.28V.56Z"/><path class="cls-2" d="M408.65,36.27V.56h10.45c3.62,0,6.4.86,8.36,2.56a9.07,9.07,0,0,1,2.94,7.22A9.28,9.28,0,0,1,428.78,16a9.82,9.82,0,0,1-5.08,3.21,6.69,6.69,0,0,1,1.69,1.29,22.22,22.22,0,0,1,2,2.69l8.67,13.07h-6.17l-6.13-9.36c-1.84-2.82-3.32-4.63-4.46-5.41a6.86,6.86,0,0,0-4-1.18h-1.53v16ZM413.77,16H418a8.71,8.71,0,0,0,5.35-1.38,5,5,0,0,0,1.76-4.21,5,5,0,0,0-1.68-4.24C422.32,5.34,420.5,4.9,418,4.9h-4.23V16Z"/><polygon class="cls-2" points="440.04 36.27 440.04 0.56 444.48 0.56 467.97 28.28 467.97 0.56 473.06 0.56 473.06 36.27 468.5 36.27 445.09 8.53 445.09 36.27 440.04 36.27 440.04 36.27"/><polygon class="cls-2" points="177.35 98.98 248.13 169.78 177.35 169.78 177.35 169.78 177.35 98.98 177.35 98.98"/><polygon class="cls-2" points="91.37 177.38 169.76 255.78 169.76 347.15 0 177.38 91.37 177.38 91.37 177.38"/><polygon class="cls-2" points="177.35 255.78 255.74 177.38 347.1 177.38 177.35 347.15 177.35 255.78 177.35 255.78"/></g></g></svg>